<?xml version="1.0" standalone="no"?>
<!DOCTYPE svg PUBLIC "-//W3C//DTD SVG 1.1//EN" "http://www.w3.org/Graphics/SVG/1.1/DTD/svg11.dtd" >
<svg xmlns="http://www.w3.org/2000/svg">
<metadata>
This is a custom SVG webfont generated by Font Squirrel.
Copyright   : Copr1991 Erik Spiekermann FontShop International
</metadata>
<defs>
<font id="MetaBoldRegular" horiz-adv-x="1024" >
<font-face units-per-em="2048" ascent="1638" descent="-410" />
<missing-glyph horiz-adv-x="681" />
<glyph unicode=" " horiz-adv-x="681" d="M0 0z" />
<glyph unicode="!" horiz-adv-x="512" d="M88 143q0 70 50 120t120 50t119 -50t49 -119.5t-50 -120t-122 -50.5q-70 0 -118 49t-48 121zM90 1407l328 47l-58 -1001h-208z" />
<glyph unicode="&#x22;" horiz-adv-x="1064" d="M166 872v578h258v-578h-258zM641 872v578h258v-578h-258z" />
<glyph unicode="#" horiz-adv-x="1212" d="M92 412v184h197l35 258h-172v184h196l58 412h198l-57 -412h203l57 412h199l-58 -412h172v-184h-196l-35 -258h172v-184h-197l-57 -412h-199l58 412h-203l-57 -412h-199l57 412h-172zM487 596h203l35 258h-203z" />
<glyph unicode="$" horiz-adv-x="1171" d="M23 98l106 224q219 -115 391 -115q250 0 250 194q0 137 -186 185l-158 43q-207 57 -281 180q-59 96 -59 217q0 176 116.5 295t311.5 141v148h176v-150q221 -23 381 -137l-135 -205q-180 109 -332 109q-88 0 -143 -46t-55 -118q0 -55 34.5 -87t122.5 -56l172 -48 q174 -47 267.5 -156.5t93.5 -266.5q0 -197 -135.5 -325t-362.5 -151v-166h-176v166q-213 19 -399 125z" />
<glyph unicode="%" horiz-adv-x="1675" d="M49 1087q0 160 95.5 258.5t250.5 98.5q166 0 262 -103q90 -90 91 -249q0 -168 -97 -263q-98 -94 -255.5 -94t-252 95t-94.5 257zM272 1094q0 -115 23 -154q33 -51 102 -51q66 0 94.5 49t28.5 158q0 125 -41 164q-33 33 -86 32q-76 0 -102 -61q-19 -45 -19 -137zM379 0 l745 1423h195l-746 -1423h-194zM948 332q0 160 95.5 258t250.5 98q166 0 262 -102q90 -90 91 -250q0 -168 -97 -262q-98 -94 -255.5 -94t-252 95t-94.5 257zM1171 338q0 -115 23 -154q33 -51 102 -51q66 0 94.5 49t28.5 158q0 125 -41 164q-33 33 -86 33q-76 0 -102 -62 q-19 -45 -19 -137z" />
<glyph unicode="&#x26;" horiz-adv-x="1464" d="M100 358q0 236 256 355q-102 80 -133 145q-33 70 -33 162q0 152 115 248t295 96q182 0 299 -90t117 -234q0 -117 -70 -196q-57 -63 -180 -127l-18 -10l237 -226q16 61 19 201v14h229v-12q0 -231 -66 -381l306 -303h-381l-86 86q-53 -45 -123 -74q-104 -41 -269 -41 q-246 0 -380 101.5t-134 285.5zM393 375q0 -96 60.5 -149.5t169.5 -53.5q147 0 215 70l-334 321q-111 -67 -111 -188zM471 1040q0 -45 20.5 -78.5t86.5 -101.5l16 -16q135 70 135 192q0 59 -36 98.5t-91 39.5q-59 0 -95 -37.5t-36 -96.5z" />
<glyph unicode="'" horiz-adv-x="606" d="M174 872v578h258v-578h-258z" />
<glyph unicode="(" horiz-adv-x="657" d="M123 659q0 219 41 390q45 190 184 342q127 135 297 208l72 -161q-72 -51 -111 -90q-109 -109 -153 -248q-35 -100 -47 -269q-4 -119 -5 -167q0 -145 17 -316q23 -207 96 -336q39 -70 84 -112.5t123 -85.5l-72 -160q-150 51 -262.5 160.5t-175.5 263.5q-63 158 -82 422 q-6 89 -6 159z" />
<glyph unicode=")" horiz-adv-x="659" d="M-61 -182q61 45 110 90q109 109 156 248q33 100 45 268q6 92 6 172q0 143 -16 311q-23 207 -95 336q-41 70 -85 113t-121 86l71 160q309 -109 439 -426q61 -160 79 -422q4 -57 4 -154q0 -229 -38 -395q-47 -188 -187 -340q-125 -137 -299 -209z" />
<glyph unicode="*" horiz-adv-x="987" d="M57 1069l66 195l268 -97v283h209v-283l268 88l62 -194l-268 -86l169 -234l-169 -125l-173 236l-165 -225l-166 125l172 223z" />
<glyph unicode="+" horiz-adv-x="1363" d="M121 492v258h432v432h258v-432h432v-258h-432v-433h-258v433h-432z" />
<glyph unicode="," horiz-adv-x="546" d="M68 -182q68 14 107.5 47t39.5 69q0 33 -53 66q-80 47 -80 143q0 74 52 125t126 51q90 0 147.5 -69.5t57.5 -175.5q0 -133 -80 -235.5t-209 -135.5z" />
<glyph unicode="-" horiz-adv-x="692" d="M102 442v238h492v-238h-492z" />
<glyph unicode="." horiz-adv-x="546" d="M94 150q0 74 52.5 126t125.5 52q76 0 129.5 -52.5t53.5 -125.5q0 -76 -53.5 -129.5t-127.5 -53.5q-76 0 -128 53.5t-52 129.5z" />
<glyph unicode="/" horiz-adv-x="686" d="M-20 -315l548 1880h181l-549 -1880h-180z" />
<glyph unicode="0" horiz-adv-x="1095" d="M63 520q0 246 135.5 397.5t352.5 151.5q223 0 354 -148.5t131 -396.5q0 -246 -135 -397.5t-352 -151.5q-223 0 -354.5 148.5t-131.5 396.5zM365 526q0 -201 48 -275.5t136 -74.5q186 0 186 342q0 201 -48 275.5t-136 74.5q-186 0 -186 -342z" />
<glyph unicode="1" horiz-adv-x="919" d="M100 782l396 287h184v-846h164v-223h-649v223h221v531q-125 -78 -246 -119z" />
<glyph unicode="2" horiz-adv-x="1099" d="M76 879q227 203 516 202q182 0 290.5 -92t108.5 -244q0 -188 -192 -331q-82 -61 -281 -168l-53 -27q76 10 199 10h366l-59 -229h-854v250q10 6 74.5 35.5t136.5 70.5q203 115 278.5 193t75.5 153q0 66 -45 102t-119 36q-119 0 -278 -131z" />
<glyph unicode="3" horiz-adv-x="1095" d="M47 899q82 63 184 109q156 63 299 63q193 0 318 -101.5t125 -254.5q0 -174 -135 -264q-33 -20 -76 -37q115 -39 179.5 -121t64.5 -191q0 -211 -202 -345t-519 -134q-92 0 -170 10l-66 191q74 -14 156 -14q213 0 346 88t133 227q0 113 -90 156q-57 25 -191 24 q-55 0 -84 -2h-20v229l16 -2q78 -6 125 -6q227 0 228 162q0 70 -44 112t-130 42q-166 0 -304 -115z" />
<glyph unicode="4" horiz-adv-x="1095" d="M74 14v187l395 874h283l-295 -663q-74 -147 -92 -166q20 4 43 4h231l49 -2q-2 27 -2 37q0 78 14 219l23 239l215 50v-363q0 -84 -2 -121l-4 -61q41 2 65 2h86v-236h-92l-63 4q10 -27 10 -73v-289l-260 -33v346l4 51q-25 -6 -66 -6h-542z" />
<glyph unicode="5" horiz-adv-x="1095" d="M147 -160q109 -29 193 -28q164 0 267.5 84t103.5 215q0 98 -61.5 157.5t-162.5 59.5q-115 0 -299 -58l66 777h698l-41 -234h-401l-29 -283q53 10 97 11q190 0 310 -111t120 -287q0 -227 -181.5 -373.5t-464.5 -146.5q-80 0 -155 15z" />
<glyph unicode="6" horiz-adv-x="1095" d="M59 549q0 160 54 295q70 182 229 332q139 131 340 223q80 41 186 74l60 -197l-10 -4q-199 -70 -310 -160q-61 -47 -102 -104q-76 -94 -111 -205q84 68 219 67q186 0 312.5 -124.5t126.5 -307.5q0 -199 -138.5 -333t-341.5 -134q-225 0 -369.5 162t-144.5 416zM358 459 q0 -131 53.5 -204t149.5 -73q92 0 147.5 68.5t55.5 183.5q0 98 -50 156.5t-136 58.5q-96 0 -213 -67q0 -12 -3 -17q-4 -77 -4 -106z" />
<glyph unicode="7" horiz-adv-x="1095" d="M98 799l62 248h854l-45 -240q-106 -154 -203 -330q-211 -412 -252 -627l-35 -184l-301 -76q68 279 148 492q74 205 180 412q92 180 190 313q-31 -8 -82 -8h-516z" />
<glyph unicode="8" horiz-adv-x="1095" d="M20 352q0 115 68 211t174 135q-78 23 -141 113q-61 88 -62 197q0 170 136.5 274t355.5 104q207 0 339 -99t132 -257q0 -104 -72.5 -187t-191.5 -116q131 -37 227 -131q90 -84 90 -221q0 -139 -92 -247t-242 -144q-98 -25 -215 -25q-195 0 -323 76q-183 110 -183 317z M326 373q0 -96 62.5 -153.5t168.5 -57.5q92 0 150.5 49t58.5 127q0 96 -78 147q-82 53 -231 105q-131 -76 -131 -217zM342 1032q0 -49 28.5 -85t96.5 -70l84 -39q59 31 102 67q63 61 64 133q0 147 -187 148q-84 0 -136 -42t-52 -112z" />
<glyph unicode="9" horiz-adv-x="1095" d="M55 604q0 207 140.5 343t355.5 136q229 0 359 -148.5t130 -410.5q0 -408 -335 -692q-205 -172 -435 -252l-149 168q166 43 330.5 176t210.5 262q-84 -39 -166 -39q-188 0 -314.5 131t-126.5 326zM352 612q0 -111 56.5 -177t150.5 -66q90 0 164 75q20 70 20 154 q0 129 -53 201.5t-145 72.5q-88 0 -140.5 -70.5t-52.5 -189.5z" />
<glyph unicode=":" horiz-adv-x="622" d="M133 139q0 76 52.5 129.5t125.5 53.5q74 -2 125 -54.5t51 -128.5q0 -72 -52 -122t-126 -50q-72 0 -124 50t-52 122zM137 752q0 74 51.5 126t122.5 54q74 0 126 -52.5t52 -126t-52 -124.5t-126 -51q-72 0 -123 51t-51 123z" />
<glyph unicode=";" horiz-adv-x="620" d="M106 -182q66 16 106 48t40 68q0 33 -47 62q-86 51 -86 143q0 78 51 129t129 51q88 0 146.5 -69.5t58.5 -177.5q0 -131 -82 -234.5t-209 -134.5zM125 754q0 74 50 126t122 54q74 0 127 -52.5t53 -125.5q0 -72 -51 -124t-123 -52q-74 0 -126 51t-52 123z" />
<glyph unicode="&#x3c;" horiz-adv-x="890" d="M115 612l493 637l215 -188l-344 -449l344 -452l-215 -185z" />
<glyph unicode="=" horiz-adv-x="1363" d="M121 295v258h1122v-258h-1122zM121 688v258h1122v-258h-1122z" />
<glyph unicode="&#x3e;" horiz-adv-x="890" d="M98 160l344 452l-344 449l215 188l494 -637l-494 -637z" />
<glyph unicode="?" d="M113 1288q55 57 156.5 106.5t240.5 49.5q164 0 276.5 -93.5t112.5 -248.5q0 -66 -17.5 -119t-51 -91t-57 -57.5t-62.5 -43.5q-154 -98 -158 -267q0 -27 4 -71h-235l-11 53q-23 123 21.5 217t159.5 176l29 21q24 16 32 22t26.5 22.5t25.5 30t14.5 31.5t7.5 39 q0 72 -47.5 106.5t-120.5 34.5q-25 0 -46.5 -3t-42 -11t-34.5 -13t-32.5 -17.5t-25 -17.5l-24.5 -18l-16 -14zM299 143q0 70 49 120t121 50q70 0 119 -50t49 -119.5t-50 -120t-122 -50.5q-70 0 -118 49t-48 121z" />
<glyph unicode="@" horiz-adv-x="1638" d="M66 723q0 326 228 545t554 219q184 0 347 -76t270.5 -233.5t107.5 -364.5q0 -123 -36 -218t-88 -146.5t-118.5 -84t-117 -42t-95.5 -9.5q-80 0 -120 33t-42 78h-4q-106 -111 -262 -111q-131 0 -213 96.5t-82 247.5q0 188 113 324.5t297 136.5q164 0 221 -117h4l17 93h192 l-76 -404q-18 -88 -18 -135q0 -57 55 -57q72 0 124 77.5t52 227.5q0 240 -146.5 370t-387.5 130q-254 0 -411 -163t-157 -417q0 -264 169 -420t434 -156q229 0 387 125h225q-109 -150 -273.5 -229.5t-355.5 -79.5q-332 0 -563 216t-231 544zM616 680q0 -182 142 -182 q117 0 166 72.5t49 174.5q0 84 -39 136.5t-113 52.5q-92 0 -148.5 -72.5t-56.5 -181.5z" />
<glyph unicode="A" horiz-adv-x="1167" d="M-27 0l467 1427h310l448 -1427h-307l-100 338h-418l-101 -338h-299zM442 575h279q-47 150 -78 287l-57 252l-68 -274q-41 -159 -76 -265z" />
<glyph unicode="B" horiz-adv-x="1208" d="M141 0v1425h482q131 0 207.5 -22.5t142.5 -79.5q117 -102 117 -254q0 -143 -97 -240q-51 -49 -131 -73q283 -86 283 -359q0 -158 -97.5 -269.5t-275.5 -123.5q-90 -4 -182 -4h-449zM424 854h170q92 0 123 18q29 16 51.5 60.5t22.5 87.5q0 45 -23 85t-59 58 q-45 18 -119 19h-166v-328zM428 233h186q86 0 134 33q74 55 73 166q0 61 -28.5 109.5t-75.5 64.5q-41 12 -111 12h-178v-385z" />
<glyph unicode="C" horiz-adv-x="1095" d="M63 682q0 262 97 442q82 156 227 243t318 87q106 0 203.5 -30.5t156.5 -82.5l-129 -194q-109 80 -227 80q-72 0 -137.5 -33t-104.5 -90q-80 -119 -80 -367q0 -274 59 -381q88 -160 275 -159q113 0 215 69l29 23l131 -180q-162 -133 -396 -134q-293 0 -464 197 q-173 193 -173 510z" />
<glyph unicode="D" horiz-adv-x="1243" d="M137 0v1415h287q133 0 248 -8q178 -14 311 -141q195 -193 195 -568q0 -287 -144 -485q-133 -182 -346 -205q-106 -8 -205 -8h-346zM428 233h154q141 0 207.5 106.5t66.5 332.5q0 283 -72 399q-72 119 -225 119h-131v-957z" />
<glyph unicode="E" d="M139 0v1423h811l-37 -233h-487v-330h408v-233h-404v-381h539v-246h-830z" />
<glyph unicode="F" horiz-adv-x="913" d="M141 0v1419h772l-32 -231h-453v-326h363v-233h-363v-629h-287z" />
<glyph unicode="G" horiz-adv-x="1241" d="M57 698q0 449 297 648q150 100 346 100q264 0 453 -164l-152 -178q-135 111 -296 110q-129 0 -205 -71q-121 -115 -121 -459q0 -299 106 -405q84 -80 224 -80q94 0 161 34v324h-217l-37 234h551v-680q-215 -127 -473 -127q-317 0 -485 217q-152 192 -152 497z" />
<glyph unicode="H" horiz-adv-x="1277" d="M143 0v1423h285v-553h410v553h290v-1423h-290v635h-410v-635h-285z" />
<glyph unicode="I" horiz-adv-x="585" d="M145 0v1423h299v-1423h-299z" />
<glyph unicode="J" horiz-adv-x="581" d="M-35 -188q121 74 166 172q29 66 29 262v1177h291v-1147q0 -197 -21 -278q-29 -119 -124 -205t-208 -129z" />
<glyph unicode="K" horiz-adv-x="1245" d="M141 0v1423h293v-649l406 649h352l-455 -659l506 -764h-377l-432 743v-743h-293z" />
<glyph unicode="L" horiz-adv-x="987" d="M152 0v1423h292v-1185h510l-51 -238h-751z" />
<glyph unicode="M" horiz-adv-x="1646" d="M82 0l133 1423h371l186 -712q37 -139 49 -217q23 117 51 223l193 706h375l127 -1423h-283l-53 760q-12 180 -12 227q-20 -98 -52 -209l-225 -778h-252l-203 748l-57 247q0 -104 -10 -252l-49 -743h-289z" />
<glyph unicode="N" horiz-adv-x="1273" d="M143 0v1423h318l272 -569q104 -221 156 -403q-18 201 -23 391l-6 581h273v-1423h-299l-244 545q-166 381 -193 467q8 -104 15 -404l8 -608h-277z" />
<glyph unicode="O" horiz-adv-x="1349" d="M55 707q0 229 85 405t237 260q129 70 295 70q285 0 448.5 -193.5t163.5 -529.5q0 -242 -82 -416t-235 -260q-119 -66 -285 -66q-162 0 -271.5 47.5t-191.5 153.5q-164 212 -164 529zM375 707q0 -365 127 -461q68 -49 170 -49q150 0 216 120.5t66 393.5q0 211 -36 329 q-20 68 -84 124.5t-166 56.5q-72 0 -132.5 -34t-89.5 -91q-71 -135 -71 -389z" />
<glyph unicode="P" horiz-adv-x="1171" d="M137 0v1427h375q170 0 249 -16t146 -53q205 -113 205 -369q0 -141 -64.5 -251.5t-181.5 -166.5q-100 -47 -284 -47h-158v-524h-287zM424 758h149q88 0 125 14t66 59q35 55 35 152q0 100 -51.5 156.5t-141.5 56.5h-182v-438z" />
<glyph unicode="Q" horiz-adv-x="1349" d="M55 707q0 229 85 405t237 260q129 70 295 70q285 0 448.5 -193.5t163.5 -529.5q0 -229 -74.5 -397t-210.5 -259q27 -4 134 -71q96 -57 174 -58l127 11l-76 -187q-41 -25 -127 -24q-109 0 -262 100q-150 100 -289 143q-160 0 -269.5 47.5t-191.5 153.5q-164 212 -164 529z M375 707q0 -365 127 -461q68 -49 170 -49q150 0 216 120.5t66 393.5q0 211 -36 329q-20 68 -84 124.5t-166 56.5q-72 0 -132.5 -34t-89.5 -91q-71 -135 -71 -389z" />
<glyph unicode="R" horiz-adv-x="1169" d="M127 0v1425l530 -2q188 0 303 -114.5t115 -302.5q0 -160 -93 -276t-224 -118q37 -29 59 -59q82 -102 342 -553h-338l-133 233q-106 193 -152.5 261.5t-82.5 87.5q-25 10 -45 12v-594h-281zM408 809h96q162 0 215 47q55 51 55 143q0 133 -102 175q-55 20 -162 20h-100z " />
<glyph unicode="S" horiz-adv-x="1171" d="M23 98l106 224q219 -115 391 -115q250 0 250 194q0 137 -186 185l-158 43q-207 57 -281 180q-59 96 -59 217q0 195 142.5 317.5t367.5 122.5q276 0 475 -143l-135 -205q-180 109 -332 109q-88 0 -143 -46t-55 -118q0 -55 34.5 -87t122.5 -56l172 -48 q174 -47 267.5 -156.5t93.5 -266.5q0 -217 -161 -348.5t-427 -131.5q-260 0 -485 129z" />
<glyph unicode="T" d="M14 1186v237h1026l-47 -237h-340v-1186h-291v1186h-348z" />
<glyph unicode="U" horiz-adv-x="1245" d="M111 432v991h292v-936q0 -123 25 -170q51 -98 195 -98q94 0 150 44t67 122q4 31 4 127v911h291v-958q0 -156 -23 -223q-35 -104 -154.5 -186.5t-328.5 -82.5q-332 0 -457 191q-35 55 -48 110.5t-13 157.5z" />
<glyph unicode="V" horiz-adv-x="1208" d="M-14 1423h313l236 -741q2 -10 19 -68.5l26 -91.5q18 -78 20 -88q4 20 25 103l19 61l20 62l18 59l242 704l301 2l-496 -1435h-260z" />
<glyph unicode="W" horiz-adv-x="1753" d="M23 1423h303l123 -561q27 -119 45 -235.5t24 -175.5l6 -58q27 240 74 455l127 575h313l131 -637q27 -133 62 -376q16 172 78 473l116 540h301l-344 -1435h-313l-127 579q-14 61 -25.5 126t-18.5 113t-12 87l-8 62q-3 24 -4 26q-29 -201 -69 -410l-117 -583h-326z" />
<glyph unicode="X" horiz-adv-x="1171" d="M-25 0l447 764l-385 663h350l193 -383l194 383h342l-371 -645l443 -782h-346l-256 502l-254 -502h-357z" />
<glyph unicode="Y" horiz-adv-x="1134" d="M-14 1427h344l184 -393q49 -113 72 -182q39 96 76 178l184 395h338l-455 -839v-586h-299v586z" />
<glyph unicode="Z" d="M35 0v201l524 866l88 129q-59 -10 -145 -10h-439l64 237h852v-206l-528 -891l-74 -101q84 8 141 8h479l-73 -233h-889z" />
<glyph unicode="[" horiz-adv-x="606" d="M135 -319v1818h430v-184h-184v-1450h184v-184h-430z" />
<glyph unicode="\" horiz-adv-x="833" d="M-6 1487l233 72l613 -1596l-232 -72z" />
<glyph unicode="]" horiz-adv-x="606" d="M41 -135h184v725v725h-184v184h430v-1818h-430v184z" />
<glyph unicode="^" horiz-adv-x="1363" d="M164 702l368 748h299l369 -748h-291l-227 488l-229 -488h-289z" />
<glyph unicode="_" d="M0 -154h1024v-102h-1024v102z" />
<glyph unicode="`" horiz-adv-x="692" d="M61 1346l119 213l424 -267l-84 -151z" />
<glyph unicode="a" horiz-adv-x="1021" d="M66 289q0 360 503 360q33 0 62 -2v43q0 90 -24.5 123t-98.5 33q-127 0 -303 -119l-117 197q80 51 170 86q145 61 287 61q131 0 219 -47t119 -135q18 -55 18 -189l-6 -352v-18q0 -86 19.5 -128t78.5 -87l-145 -168q-106 45 -148 127q-43 -41 -63 -56q-80 -57 -211 -57 q-174 0 -267 85t-93 243zM358 299q0 -61 34 -99t87 -38q78 0 144 71l4 226h-13q-145 0 -200.5 -34t-55.5 -126z" />
<glyph unicode="b" horiz-adv-x="1136" d="M109 0q27 61 26 223v971q0 182 -18 258l280 66q10 -90 11 -187v-248q0 -68 -7 -92q78 84 224 84q193 0 304 -143.5t111 -388.5q0 -322 -194 -482q-102 -82 -230 -81q-145 0 -233 96q-10 -47 -29 -76h-245zM412 281q76 -68 153 -68q100 0 133 82q31 72 31 242 q0 125 -12 178q-31 133 -150 133q-80 0 -155 -84v-483z" />
<glyph unicode="c" horiz-adv-x="878" d="M74 516q0 338 215 485q115 78 260 78q104 0 203 -47q43 -23 102 -74l-133 -180q-88 82 -166 82q-92 0 -135 -84t-43 -268q0 -199 53 -264q47 -59 123 -60q90 0 188 86l17 15l125 -166q-49 -49 -97 -78q-113 -66 -256 -66q-217 0 -336.5 142.5t-119.5 398.5z" />
<glyph unicode="d" horiz-adv-x="1134" d="M86 506q0 246 125 399.5t324 153.5q113 0 186 -60q-8 45 -8 156v361l272 -43v-1090q0 -297 39 -383h-246q-10 20 -16 61q-100 -88 -242 -88q-199 0 -316.5 144.5t-117.5 388.5zM391 504q0 -168 41 -233.5t150 -65.5q80 0 135 67v500q-78 68 -150 68q-92 0 -134 -80 t-42 -256z" />
<glyph unicode="e" d="M59 512q0 270 131 416q127 141 330 141q197 0 303 -111q139 -141 140 -458v-64h-607v-8q0 -121 57.5 -187.5t164.5 -66.5q139 0 266 105l106 -164q-178 -145 -395 -146q-225 0 -360.5 147.5t-135.5 395.5zM360 637h318v12q0 106 -33 158q-39 61 -121 61q-78 0 -121 -59 t-43 -168v-4z" />
<glyph unicode="f" horiz-adv-x="583" d="M47 858v193h100q-10 72 -10 141q0 156 88 241t250 85q131 0 248 -66l-88 -170q-72 35 -113 35q-53 0 -83.5 -32t-30.5 -87v-147h266l-70 -193h-194v-858h-269v858h-94z" />
<glyph unicode="g" horiz-adv-x="1130" d="M57 -102q0 57 25 106h254q-12 -33 -12 -67q0 -129 196 -130q123 0 174 35q66 41 66 106.5t-49 94.5q-51 27 -144 31q-2 0 -41 1t-75 1q-172 2 -252 33q-37 14 -60 51q-20 41 -20 86q0 61 33 96q47 53 159 80q-225 57 -225 291q0 162 121 258t321 96q90 0 189 -27 q92 -23 129 -22q117 0 217 90l115 -174q-84 -78 -193 -78q-18 0 -72 6q61 -74 62 -172q0 -135 -109.5 -223t-277.5 -88q-20 0 -41 2q-109 -51 -109 -86q0 -25 45 -25l148 -2q217 -2 317 -94q90 -84 90 -223q0 -127 -84 -217q-127 -135 -413 -135q-276 0 -398 112 q-86 81 -86 187zM362 711q0 -150 162 -150q168 0 168 150q0 74 -44 114.5t-121.5 40.5t-121 -40.5t-43.5 -114.5z" />
<glyph unicode="h" horiz-adv-x="1134" d="M111 1452l280 66q18 -86 19 -256v-209q0 -18 -2 -51t-2 -37q53 51 135 81.5t161 30.5q96 0 172 -42t101 -107q27 -78 26 -195v-733h-268v705q0 78 -24.5 110.5t-81.5 32.5q-111 0 -217 -96v-752h-279v1212q0 168 -20 240z" />
<glyph unicode="i" horiz-adv-x="512" d="M88 1337.5q0 69.5 50 119.5t122 50q70 0 118 -49t48 -120.5t-49 -121t-121 -49.5q-70 0 -119 50.5t-49 120zM119 0v1030l274 43v-1073h-274z" />
<glyph unicode="j" horiz-adv-x="512" d="M-10 -299q72 57 100 119q33 59 33 200v986l272 65v-1042q0 -225 -78 -326q-74 -96 -213 -154zM92 1337q0 72 50.5 122t120 50t119.5 -49t50 -119q0 -72 -50 -122t-122 -50q-70 0 -119 49t-49 119z" />
<glyph unicode="k" horiz-adv-x="1026" d="M104 1454l277 68q16 -104 16 -340v-1182h-274v1182q-1 149 -19 272zM403 594l269 459h329l-333 -443l411 -610h-323z" />
<glyph unicode="l" horiz-adv-x="550" d="M113 1452l280 64q14 -80 15 -273v-817q0 -201 18 -233q16 -29 55 -29q16 0 31 4l47 -164q-74 -29 -164 -29q-88 0 -153.5 39t-89.5 105q-25 63 -25 235v783q0 184 -14 315z" />
<glyph unicode="m" horiz-adv-x="1607" d="M100 999l248 68q23 -37 37 -106q111 106 256 106q129 0 213 -86q14 -14 41 -51q135 137 297 137q131 0 207 -66q45 -39 61.5 -93t16.5 -163v-745h-267v692q0 94 -16 122t-70 28q-84 0 -182 -88v-754h-260v682q0 98 -18.5 130t-75.5 32q-92 0 -180 -80v-764h-269v731 q0 198 -39 268z" />
<glyph unicode="n" horiz-adv-x="1091" d="M98 1006l244 69q39 -68 39 -131q72 51 121 78q86 45 188 45q88 0 158 -42t94 -110q20 -55 21 -149v-766h-271v682q0 90 -19.5 122t-72.5 32q-86 0 -190 -95v-741h-275v760q0 142 -37 246z" />
<glyph unicode="o" horiz-adv-x="1060" d="M57 520q0 248 129 398.5t342 150.5q223 0 357 -158q121 -141 121 -383q0 -256 -132 -405q-129 -145 -346 -146q-213 0 -342 147.5t-129 395.5zM362 526q0 -182 35 -264q18 -41 57.5 -63.5t82.5 -22.5q90 0 130 84t40 270q0 211 -56 281q-43 55 -119 55q-104 0 -141 -106 q-29 -87 -29 -234z" />
<glyph unicode="p" horiz-adv-x="1134" d="M127 1026l244 43q16 -57 18 -98q35 43 106.5 70.5t151.5 27.5q113 0 207 -63q195 -131 195 -453q0 -170 -32 -270.5t-114 -186.5q-113 -119 -280 -119q-125 0 -220 56l5 -86v-328l-265 -70v1213q0 164 -16 264zM410 256q74 -61 151 -61q102 0 145.5 75.5t43.5 255.5 q0 158 -27 232q-31 88 -131 88q-106 0 -182 -80v-510z" />
<glyph unicode="q" horiz-adv-x="1132" d="M90 508q0 264 107 401q43 55 102 97q109 70 225 69q82 0 156 -31.5t90 -74.5q2 43 21 82h227q-25 -106 -25 -310v-1126l-260 -70v398q0 74 6 106q-84 -74 -209 -74q-223 0 -344 170q-53 76 -74.5 157t-21.5 206zM391 543q0 -227 58 -289q49 -53 126 -53q90 0 158 80v493 q-68 72 -158 72q-72 0 -118 -47q-66 -66 -66 -256z" />
<glyph unicode="r" horiz-adv-x="692" d="M102 1008l246 65q37 -66 43 -149q66 90 156 133q37 16 90 16q49 0 102 -22l-75 -242q-39 20 -80 20q-92 0 -168 -88v-741h-275v700q0 206 -39 308z" />
<glyph unicode="s" horiz-adv-x="952" d="M23 88l98 201q195 -119 348 -119q59 0 99 34t40 85q0 53 -39 82.5t-123 46.5l-122 22q-51 8 -107.5 40t-85.5 67q-59 72 -59 188q0 154 111.5 248t293.5 94q174 0 375 -98l-90 -184q-150 76 -258 75q-59 0 -96 -27.5t-37 -74.5q0 -41 29.5 -64.5t101.5 -41.5l127 -33 q145 -37 209 -119q57 -72 57 -178q0 -164 -124 -264.5t-325 -100.5q-192 0 -423 121z" />
<glyph unicode="t" horiz-adv-x="622" d="M35 868v179h104q0 172 11 249l278 70q-16 -154 -16 -315h245l-69 -183h-176v-534q0 -100 24.5 -134t93.5 -34q29 0 99 20l35 -163q-115 -47 -224 -48q-104 0 -182 42t-100 112q-18 51 -19 162v577h-104z" />
<glyph unicode="u" horiz-adv-x="1099" d="M137 352v672l271 51v-674q0 -133 22 -172q25 -49 96 -49q51 0 102.5 31t67.5 70v737l262 55v-801q0 -115 64 -190l-195 -111q-55 39 -82 103q-104 -100 -276 -101q-111 0 -197 47.5t-112 122.5q-23 66 -23 209z" />
<glyph unicode="v" horiz-adv-x="983" d="M-4 1032l280 35l152 -473q41 -127 68 -252q14 111 63 266l141 441h287l-383 -1049h-227z" />
<glyph unicode="w" horiz-adv-x="1462" d="M18 1026l273 31l86 -400l59 -325q25 186 76 364l98 348h258l84 -342l78 -370q29 207 57 342l80 370h283l-299 -1044h-252l-94 360q-45 186 -60 254q-8 43 -16 105q-8 -57 -24.5 -135t-90.5 -369l-53 -215h-256z" />
<glyph unicode="x" horiz-adv-x="985" d="M-49 0l387 557l-291 440l285 80q92 -154 141 -256l33 -69q6 10 6 14q39 94 86 190l49 91h324l-312 -484l377 -563h-348l-110 193q-10 16 -34 64t-42 79l-6 10l-9 -18q-25 -55 -96 -183l-88 -145h-352z" />
<glyph unicode="y" d="M4 1030l281 33l182 -610l55 -217q20 117 33 167q10 41 41 146l158 498h288l-380 -1063q-53 -150 -98.5 -226.5t-102.5 -119.5q-104 -76 -254 -97l-94 180q117 33 170 70q43 31 77 86q29 47 60 123h-70l-23 66l-20 57q-8 23 -22 68l-24 74q-9 28 -9 30z" />
<glyph unicode="z" horiz-adv-x="876" d="M18 0v170l494 680h-453v192h779v-188l-463 -664h481l-65 -190h-773z" />
<glyph unicode="{" horiz-adv-x="757" d="M29 473v234q27 0 57.5 5t71.5 17t66.5 43t25.5 76v354q0 152 71.5 224.5t192.5 72.5h215v-233h-100q-45 0 -74 -12.5t-40 -34t-15 -40t-4 -44.5v-330q0 -68 -18.5 -112t-54.5 -63.5t-62.5 -26.5t-69.5 -11v-4q43 -2 69.5 -9.5t62.5 -27t54.5 -63.5t18.5 -111v-332 q0 -27 4 -45t15 -39.5t40 -34t74 -12.5h100v-233h-215q-117 0 -190.5 73.5t-73.5 225.5v352q0 45 -25.5 75.5t-66.5 43t-71.5 17.5t-57.5 5z" />
<glyph unicode="|" horiz-adv-x="454" d="M98 -37v1585h258v-1585h-258z" />
<glyph unicode="}" horiz-adv-x="757" d="M29 -86h100q45 0 73.5 12.5t40 34t15.5 39.5t4 45v330q0 68 18.5 111.5t54.5 63t62.5 27t69.5 11.5v4q-43 2 -69.5 9t-62.5 26.5t-54.5 63.5t-18.5 112v332q0 27 -4 45t-15.5 39.5t-40 34t-73.5 12.5h-100v233h221q113 0 185.5 -73.5t72.5 -225.5v-352q0 -45 25.5 -76 t65.5 -43t70.5 -17t59.5 -5v-234q-29 0 -59.5 -5t-70.5 -17.5t-65.5 -43t-25.5 -75.5v-355q0 -152 -71.5 -224t-192.5 -72h-215v233z" />
<glyph unicode="~" horiz-adv-x="1363" d="M209 643q92 176 256 176q80 0 227 -65l44 -20l47 -20l41 -17q24 -9 42.5 -13t34.5 -4q39 0 76 25.5t52 45.5l52 68l74 -221q-92 -176 -256 -176q-80 0 -227 65l-44 20l-47 20l-41 17q-24 9 -42.5 13t-34.5 4q-39 0 -76 -25.5t-52 -45.5l-52 -68z" />
<glyph unicode="&#xa0;" horiz-adv-x="681" d="M0 0z" />
<glyph unicode="&#xa1;" horiz-adv-x="512" d="M82 1276q0 70 50 120t122 50q70 0 118 -49t48 -121t-50.5 -121t-120 -49t-118.5 50t-49 120zM90 -35l57 1002h209l62 -955z" />
<glyph unicode="&#xa2;" horiz-adv-x="878" d="M74 516q0 338 215 485q63 45 145 64l2 199h193v-193q45 0 123 -39q43 -23 102 -74l-133 -180q-88 82 -166 82q-92 0 -135 -84t-43 -268q0 -199 53 -264q47 -59 123 -60q90 0 188 86l17 15l125 -166q-49 -49 -97 -78q-72 -43 -157 -57v-211h-193v211q-172 29 -267 168 t-95 364z" />
<glyph unicode="&#xa3;" horiz-adv-x="1212" d="M98 0v233h197v406h-197v209h197v145q0 197 136 339.5t372 142.5q274 0 428 -140l-205 -219q-88 88 -186 88q-127 0 -182.5 -73.5t-55.5 -182.5v-100h320v-209h-320v-406h518v-233h-1022z" />
<glyph unicode="&#xa4;" horiz-adv-x="915" d="M68 905l241 142q61 -102 82 -144q10 0 30.5 2t31.5 2q14 0 39.5 -3t37.5 -3l27 55l49 91l234 -142l-90 -139q55 -78 55 -211q0 -117 -60 -205l97 -145l-242 -142q-61 102 -82 144q-10 0 -30.5 -2t-30.5 -2q-14 0 -40 3t-38 3l-27 -55l-49 -91l-233 142l90 139 q-53 76 -54 207q0 123 58 209zM330 557q0 -115 22 -154q33 -51 103 -51q66 0 94.5 49.5t28.5 157.5q0 125 -41 164q-33 33 -86 33q-76 0 -103 -62q-18 -45 -18 -137z" />
<glyph unicode="&#xa5;" horiz-adv-x="1134" d="M-14 1427h344l184 -393q49 -113 72 -182q39 96 76 178l184 395h338l-312 -573l209 -2v-211h-323l-29 -53v-103h352v-211h-352v-272h-299v272h-346v211h346v103l-29 53h-317v211l205 2z" />
<glyph unicode="&#xa6;" horiz-adv-x="454" d="M98 -37v625h258v-625h-258zM98 924v624h258v-624h-258z" />
<glyph unicode="&#xa7;" horiz-adv-x="1212" d="M78 -51l262 129q16 -70 81.5 -105.5t141.5 -35.5q61 0 112.5 24.5t51.5 81.5q0 45 -46 81t-113.5 60.5t-148.5 61.5t-148.5 76.5t-113.5 112.5t-46 165q0 193 178 303q-129 86 -129 236q0 113 68.5 194.5t166 117.5t205.5 36q150 0 275.5 -52.5t183.5 -170.5l-258 -148 q-20 57 -72.5 91t-116.5 34q-53 0 -93 -28.5t-40 -79.5q0 -55 65.5 -98.5t160 -79t188.5 -78.5t159.5 -121t65.5 -181q0 -82 -48 -155.5t-124 -110.5q113 -90 113 -243q0 -127 -82 -215.5t-191.5 -124t-230.5 -35.5q-356 0 -477 258zM393 657q0 -35 12.5 -61.5t44 -48 t47 -29.5t60.5 -29l209 -96q70 41 70 125q0 90 -134 148l-237 112q-72 -41 -72 -121z" />
<glyph unicode="&#xa8;" horiz-adv-x="1021" d="M137 1300.5q0 67.5 49.5 115.5t116.5 48q66 0 113 -48t47 -115.5t-48 -115.5t-116 -48q-66 0 -114 48t-48 115.5zM569 1300.5q0 67.5 48.5 115.5t117.5 48q66 0 113 -48t47 -115.5t-48 -115.5t-115.5 -48t-115 48t-47.5 115.5z" />
<glyph unicode="&#xa9;" horiz-adv-x="1638" d="M57 725q0 315 223.5 538.5t539 223.5t538.5 -223.5t223 -538.5t-223 -538.5t-538.5 -223.5t-539 223.5t-223.5 538.5zM266 725q0 -238 162 -408t391.5 -170t391 170t161.5 408t-161.5 408t-391 170t-391.5 -170t-162 -408zM432 731q0 195 105.5 312.5t298.5 117.5 q145 0 245.5 -77.5t122.5 -225.5h-192q-25 119 -160 119q-98 0 -148.5 -64.5t-50.5 -177.5q0 -115 53.5 -186.5t141.5 -71.5q156 0 164 137h192q-20 -154 -122.5 -237.5t-241.5 -83.5q-188 0 -298 124t-110 314z" />
<glyph unicode="&#xaa;" horiz-adv-x="819" d="M45 473v160h748v-160h-748zM70 993q0 270 379 271h45v30q0 68 -18.5 92.5t-74.5 24.5q-98 0 -227 -88l-88 147q57 37 129 64q109 47 215 47q205 0 252 -137q14 -39 14 -141l-4 -265v-14q0 -63 14.5 -95t59.5 -65l-98 -127q-96 39 -121 97q-33 -31 -49 -43 q-59 -43 -158 -43q-129 0 -199.5 64t-70.5 181zM289 1001q0 -45 25.5 -73.5t66.5 -28.5q57 0 106 53l5 170h-11q-109 0 -150.5 -25.5t-41.5 -95.5z" />
<glyph unicode="&#xab;" horiz-adv-x="1101" d="M37 510l325 479l187 -125l-238 -354l238 -354l-187 -125zM532 510l326 479l186 -125l-237 -354l237 -354l-186 -125z" />
<glyph unicode="&#xad;" horiz-adv-x="692" d="M102 442v238h492v-238h-492z" />
<glyph unicode="&#xae;" horiz-adv-x="1638" d="M57 725q0 315 223.5 538.5t539 223.5t538.5 -223.5t223 -538.5t-223 -538.5t-538.5 -223.5t-539 223.5t-223.5 538.5zM266 725q0 -238 162 -408t391.5 -170t391 170t161.5 408t-161.5 408t-391 170t-391.5 -170t-162 -408zM526 334v799h283q340 0 340 -259 q0 -199 -186 -223l204 -317h-215l-182 307h-35v-307h-209zM733 801h84q35 0 56.5 3t44 23.5t22.5 59.5q0 86 -123 86h-84v-172z" />
<glyph unicode="&#xaf;" horiz-adv-x="808" d="M82 1364v160h643v-160h-643z" />
<glyph unicode="&#xb0;" horiz-adv-x="808" d="M49 1087q0 160 95.5 258.5t250.5 98.5q166 0 262 -103q90 -90 91 -249q0 -168 -97 -263q-98 -94 -255.5 -94t-252 95t-94.5 257zM272 1094q0 -115 23 -154q33 -51 102 -51q66 0 94.5 49t28.5 158q0 125 -41 164q-33 33 -86 32q-76 0 -102 -61q-19 -45 -19 -137z" />
<glyph unicode="&#xb2;" horiz-adv-x="1099" d="M76 879q227 203 516 202q182 0 290.5 -92t108.5 -244q0 -188 -192 -331q-82 -61 -281 -168l-53 -27q76 10 199 10h366l-59 -229h-854v250q10 6 74.5 35.5t136.5 70.5q203 115 278.5 193t75.5 153q0 66 -45 102t-119 36q-119 0 -278 -131z" />
<glyph unicode="&#xb3;" horiz-adv-x="1095" d="M47 899q82 63 184 109q156 63 299 63q193 0 318 -101.5t125 -254.5q0 -174 -135 -264q-33 -20 -76 -37q115 -39 179.5 -121t64.5 -191q0 -211 -202 -345t-519 -134q-92 0 -170 10l-66 191q74 -14 156 -14q213 0 346 88t133 227q0 113 -90 156q-57 25 -191 24 q-55 0 -84 -2h-20v229l16 -2q78 -6 125 -6q227 0 228 162q0 70 -44 112t-130 42q-166 0 -304 -115z" />
<glyph unicode="&#xb4;" horiz-adv-x="692" d="M80 1292l424 267l119 -213l-459 -205z" />
<glyph unicode="&#xb5;" horiz-adv-x="1099" d="M137 -451v1475l271 51v-674q0 -133 22 -172q25 -49 96 -49q51 0 102.5 31t67.5 70v737l262 55v-801q0 -115 64 -190l-195 -111q-55 39 -82 103q-104 -100 -276 -101q-39 0 -72 29q4 -41 4 -63v-320z" />
<glyph unicode="&#xb6;" horiz-adv-x="1228" d="M63 1065q0 199 126 292t352 93h551v-1708h-185v1561h-219v-1561h-184v950q-197 0 -319 104.5t-122 268.5z" />
<glyph unicode="&#xb8;" horiz-adv-x="878" d="M279 -358l61 129q70 -31 106 -31q20 0 36 12t16 25q0 41 -52 41l-55 -13l-26 41l49 179l147 -13l-29 -78q74 -8 111 -52t37 -109q0 -78 -59.5 -129.5t-163.5 -51.5q-88 1 -178 50z" />
<glyph unicode="&#xb9;" horiz-adv-x="919" d="M100 782l396 287h184v-846h164v-223h-649v223h221v531q-125 -78 -246 -119z" />
<glyph unicode="&#xba;" horiz-adv-x="948" d="M94 473v160h748v-160h-748zM109 1153q0 186 97 299t255 113q170 0 268 -117q90 -109 90 -289q0 -195 -98 -301q-96 -111 -260 -110q-160 0 -256 110.5t-96 294.5zM342 1159q0 -129 27 -186q12 -29 40.5 -47.5t57.5 -18.5q63 0 92 60.5t29 193.5q0 152 -39 203 q-33 37 -84 37q-78 0 -100 -76q-23 -57 -23 -166z" />
<glyph unicode="&#xbb;" horiz-adv-x="1101" d="M57 156l238 354l-238 354l187 125l325 -479l-325 -479zM553 156l238 354l-238 354l186 125l326 -479l-326 -479z" />
<glyph unicode="&#xbc;" horiz-adv-x="2701" d="M1680 14v187l395 874h283l-295 -663q-74 -147 -92 -166q20 4 43 4h231l49 -2q-2 27 -2 37q0 78 14 219l23 239l215 50v-363q0 -84 -2 -121l-4 -61q41 2 65 2h86v-236h-92l-63 4q10 -27 10 -73v-289l-260 -33v346l4 51q-25 -6 -66 -6h-542zM658 -315l1081 1880h221 l-1081 -1880h-221zM100 782l396 287h184v-846h164v-223h-649v223h221v531q-125 -78 -246 -119z" />
<glyph unicode="&#xbd;" horiz-adv-x="2705" d="M1682 879q227 203 516 202q182 0 290.5 -92t108.5 -244q0 -188 -192 -331q-82 -61 -281 -168l-53 -27q76 10 199 10h366l-59 -229h-854v250q10 6 74.5 35.5t136.5 70.5q203 115 278.5 193t75.5 153q0 66 -45 102t-119 36q-119 0 -278 -131zM658 -315l1081 1880h221 l-1081 -1880h-221zM100 782l396 287h184v-846h164v-223h-649v223h221v531q-125 -78 -246 -119z" />
<glyph unicode="&#xbe;" horiz-adv-x="2877" d="M1856 14v187l395 874h283l-295 -663q-74 -147 -92 -166q20 4 43 4h231l49 -2q-2 27 -2 37q0 78 14 219l23 239l215 50v-363q0 -84 -2 -121l-4 -61q41 2 65 2h86v-236h-92l-63 4q10 -27 10 -73v-289l-260 -33v346l4 51q-25 -6 -66 -6h-542zM834 -315l1081 1880h221 l-1081 -1880h-221zM47 899q82 63 184 109q156 63 299 63q193 0 318 -101.5t125 -254.5q0 -174 -135 -264q-33 -20 -76 -37q115 -39 179.5 -121t64.5 -191q0 -211 -202 -345t-519 -134q-92 0 -170 10l-66 191q74 -14 156 -14q213 0 346 88t133 227q0 113 -90 156 q-57 25 -191 24q-55 0 -84 -2h-20v229l16 -2q78 -6 125 -6q227 0 228 162q0 70 -44 112t-130 42q-166 0 -304 -115z" />
<glyph unicode="&#xbf;" d="M117 317q0 66 17.5 119t51 91t57 57.5t62.5 44.5q154 98 158 266q0 27 -4 72h235l11 -54q23 -123 -21.5 -217t-159.5 -176l-29 -20q-24 -16 -32 -22.5t-26.5 -23t-26 -29.5t-14.5 -31.5t-7 -39.5q0 -72 47 -106.5t121 -34.5q25 0 46.5 3t42 11.5t34.5 13.5t32.5 17 t24.5 17.5t25 19.5l16 12l125 -176q-55 -57 -156.5 -106.5t-240.5 -49.5q-164 0 -276.5 93t-112.5 249zM379 1276q0 70 50 120t122 50q70 0 118 -49t48 -121t-49.5 -121t-120.5 -49q-70 0 -119 50t-49 120z" />
<glyph unicode="&#xc0;" horiz-adv-x="1167" d="M-27 0l467 1427h310l448 -1427h-307l-100 338h-418l-101 -338h-299zM236 1673l118 213l424 -266l-84 -152zM442 575h279q-47 150 -78 287l-57 252l-68 -274q-41 -159 -76 -265z" />
<glyph unicode="&#xc1;" horiz-adv-x="1167" d="M-27 0l467 1427h310l448 -1427h-307l-100 338h-418l-101 -338h-299zM377 1620l424 266l119 -213l-459 -205zM442 575h279q-47 150 -78 287l-57 252l-68 -274q-41 -159 -76 -265z" />
<glyph unicode="&#xc2;" horiz-adv-x="1167" d="M-27 0l467 1427h310l448 -1427h-307l-100 338h-418l-101 -338h-299zM213 1608l369 276l376 -276l-92 -150l-284 156l-277 -156zM442 575h279q-47 150 -78 287l-57 252l-68 -274q-41 -159 -76 -265z" />
<glyph unicode="&#xc3;" horiz-adv-x="1167" d="M-27 0l467 1427h310l448 -1427h-307l-100 338h-418l-101 -338h-299zM219 1671q55 70 111.5 102.5t142.5 32.5q63 0 136 -41t132 -41q31 0 55.5 10.5t39 22.5t41.5 41l88 -151q-55 -70 -111.5 -103t-142.5 -33q-63 0 -136 41t-133 41q-31 0 -55.5 -10t-38.5 -22.5 t-41 -40.5zM442 575h279q-47 150 -78 287l-57 252l-68 -274q-41 -159 -76 -265z" />
<glyph unicode="&#xc4;" horiz-adv-x="1167" d="M-27 0l467 1427h310l448 -1427h-307l-100 338h-418l-101 -338h-299zM188 1628.5q0 67.5 49.5 115.5t116.5 48q66 0 113 -48t47 -115.5t-48 -116t-116 -48.5q-66 0 -114 48.5t-48 116zM442 575h279q-47 150 -78 287l-57 252l-68 -274q-41 -159 -76 -265zM621 1628.5 q0 67.5 48 115.5t117 48q66 0 113 -48t47 -115.5t-48 -116t-115.5 -48.5t-114.5 48.5t-47 116z" />
<glyph unicode="&#xc5;" horiz-adv-x="1167" d="M-27 0l467 1427h310l448 -1427h-307l-100 338h-418l-101 -338h-299zM371 1677q0 88 64.5 152.5t152.5 64.5t150.5 -63.5t62.5 -153.5q0 -88 -64.5 -152.5t-152.5 -64.5t-150.5 63.5t-62.5 153.5zM442 575h279q-47 150 -78 287l-57 252l-68 -274q-41 -159 -76 -265z M481 1677q0 -43 31 -73.5t72 -30.5q43 0 73.5 30.5t30.5 73.5t-29.5 74t-70.5 31q-45 0 -76 -31t-31 -74z" />
<glyph unicode="&#xc6;" horiz-adv-x="1826" d="M41 0l848 1423h864l-37 -233h-487v-330h407v-233h-403v-381h539v-246h-830v338h-391l-191 -338h-319zM684 575h258q-6 217 0 340l16 170q-219 -416 -274 -510z" />
<glyph unicode="&#xc7;" horiz-adv-x="1095" d="M63 682q0 262 97 442q82 156 227 243t318 87q106 0 203.5 -30.5t156.5 -82.5l-129 -194q-109 80 -227 80q-72 0 -137.5 -33t-104.5 -90q-80 -119 -80 -367q0 -274 59 -381q88 -160 275 -159q113 0 215 69l29 23l131 -180q-162 -133 -396 -134h-34l-15 -41q74 -8 111 -52 t37 -109q0 -78 -59.5 -129.5t-164.5 -51.5q-88 0 -178 50l62 129q70 -31 106 -31q20 0 35.5 12t15.5 25q0 41 -51 41q-12 0 -29.5 -6.5t-25.5 -6.5l-27 41l41 150q-172 43 -288 176q-173 193 -173 510z" />
<glyph unicode="&#xc8;" d="M139 0v1423h811l-37 -233h-487v-330h408v-233h-404v-381h539v-246h-830zM256 1673l119 213l424 -266l-84 -152z" />
<glyph unicode="&#xc9;" d="M139 0v1423h811l-37 -233h-487v-330h408v-233h-404v-381h539v-246h-830zM285 1620l424 266l118 -213l-458 -205z" />
<glyph unicode="&#xca;" d="M139 0v1423h811l-37 -233h-487v-330h408v-233h-404v-381h539v-246h-830zM172 1608l369 276l377 -276l-93 -150l-284 156l-277 -156z" />
<glyph unicode="&#xcb;" d="M139 0v1423h811l-37 -233h-487v-330h408v-233h-404v-381h539v-246h-830zM168 1628.5q0 67.5 49 115.5t117 48q66 0 113 -48t47 -115.5t-48.5 -116t-115.5 -48.5q-66 0 -114 48.5t-48 116zM600 1628.5q0 67.5 48 115.5t118 48q66 0 113 -48t47 -115.5t-48.5 -116 t-116 -48.5t-114.5 48.5t-47 116z" />
<glyph unicode="&#xcc;" horiz-adv-x="585" d="M-41 1673l119 213l424 -266l-84 -152zM145 0v1423h299v-1423h-299z" />
<glyph unicode="&#xcd;" horiz-adv-x="585" d="M49 1620l424 266l119 -213l-459 -205zM145 0v1423h299v-1423h-299z" />
<glyph unicode="&#xce;" horiz-adv-x="585" d="M-74 1608l369 276l377 -276l-92 -150l-285 156l-277 -156zM145 0v1423h299v-1423h-299z" />
<glyph unicode="&#xcf;" horiz-adv-x="585" d="M-88 1628.5q0 67.5 49 115.5t117 48q66 0 113 -48t47 -115.5t-48.5 -116t-115.5 -48.5q-66 0 -114 48.5t-48 116zM145 0v1423h299v-1423h-299zM344 1628.5q0 67.5 48 115.5t118 48q66 0 113 -48t47 -115.5t-48.5 -116t-116 -48.5t-114.5 48.5t-47 116z" />
<glyph unicode="&#xd1;" horiz-adv-x="1273" d="M143 0v1423h318l272 -569q104 -221 156 -403q-18 201 -23 391l-6 581h273v-1423h-299l-244 545q-166 381 -193 467q8 -104 15 -404l8 -608h-277zM301 1671q55 70 111.5 102.5t142.5 32.5q63 0 136 -41t132 -41q31 0 55.5 10.5t39 22.5t40.5 41l89 -151 q-55 -70 -111.5 -103t-142.5 -33q-63 0 -136 41t-133 41q-31 0 -55.5 -10t-38.5 -22.5t-41 -40.5z" />
<glyph unicode="&#xd2;" horiz-adv-x="1349" d="M55 707q0 229 85 405t237 260q129 70 295 70q285 0 448.5 -193.5t163.5 -529.5q0 -242 -82 -416t-235 -260q-119 -66 -285 -66q-162 0 -271.5 47.5t-191.5 153.5q-164 212 -164 529zM369 1673l118 213l424 -266l-84 -152zM375 707q0 -365 127 -461q68 -49 170 -49 q150 0 216 120.5t66 393.5q0 211 -36 329q-20 68 -84 124.5t-166 56.5q-72 0 -132.5 -34t-89.5 -91q-71 -135 -71 -389z" />
<glyph unicode="&#xd3;" horiz-adv-x="1349" d="M55 707q0 229 85 405t237 260q129 70 295 70q285 0 448.5 -193.5t163.5 -529.5q0 -242 -82 -416t-235 -260q-119 -66 -285 -66q-162 0 -271.5 47.5t-191.5 153.5q-164 212 -164 529zM375 707q0 -365 127 -461q68 -49 170 -49q150 0 216 120.5t66 393.5q0 211 -36 329 q-20 68 -84 124.5t-166 56.5q-72 0 -132.5 -34t-89.5 -91q-71 -135 -71 -389zM479 1620l424 266l119 -213l-459 -205z" />
<glyph unicode="&#xd4;" horiz-adv-x="1349" d="M55 707q0 229 85 405t237 260q129 70 295 70q285 0 448.5 -193.5t163.5 -529.5q0 -242 -82 -416t-235 -260q-119 -66 -285 -66q-162 0 -271.5 47.5t-191.5 153.5q-164 212 -164 529zM295 1608l369 276l376 -276l-92 -150l-284 156l-277 -156zM375 707q0 -365 127 -461 q68 -49 170 -49q150 0 216 120.5t66 393.5q0 211 -36 329q-20 68 -84 124.5t-166 56.5q-72 0 -132.5 -34t-89.5 -91q-71 -135 -71 -389z" />
<glyph unicode="&#xd5;" horiz-adv-x="1349" d="M55 707q0 229 85 405t237 260q129 70 295 70q285 0 448.5 -193.5t163.5 -529.5q0 -242 -82 -416t-235 -260q-119 -66 -285 -66q-162 0 -271.5 47.5t-191.5 153.5q-164 212 -164 529zM299 1671q55 70 111.5 102.5t142.5 32.5q63 0 136 -41t132 -41q31 0 55.5 10.5t39 22.5 t40.5 41l88 -151q-55 -70 -111 -103t-142 -33q-63 0 -136 41t-133 41q-31 0 -55.5 -10t-38.5 -22.5t-41 -40.5zM375 707q0 -365 127 -461q68 -49 170 -49q150 0 216 120.5t66 393.5q0 211 -36 329q-20 68 -84 124.5t-166 56.5q-72 0 -132.5 -34t-89.5 -91q-71 -135 -71 -389 z" />
<glyph unicode="&#xd6;" horiz-adv-x="1349" d="M55 707q0 229 85 405t237 260q129 70 295 70q285 0 448.5 -193.5t163.5 -529.5q0 -242 -82 -416t-235 -260q-119 -66 -285 -66q-162 0 -271.5 47.5t-191.5 153.5q-164 212 -164 529zM322 1628.5q0 67.5 49 115.5t116 48q66 0 113 -48t47 -115.5t-48 -116t-116 -48.5 q-66 0 -113.5 48.5t-47.5 116zM375 707q0 -365 127 -461q68 -49 170 -49q150 0 216 120.5t66 393.5q0 211 -36 329q-20 68 -84 124.5t-166 56.5q-72 0 -132.5 -34t-89.5 -91q-71 -135 -71 -389zM754 1628.5q0 67.5 48 115.5t118 48q66 0 112.5 -48t46.5 -115.5t-48 -116 t-115.5 -48.5t-114.5 48.5t-47 116z" />
<glyph unicode="&#xd7;" horiz-adv-x="1363" d="M195 315l305 306l-305 305l182 182l305 -305l305 305l182 -182l-305 -305l305 -306l-182 -182l-305 305l-305 -305z" />
<glyph unicode="&#xd8;" horiz-adv-x="1349" d="M55 707q0 229 85 405t237 260q129 70 295 70q170 0 297 -72l125 203l149 -84l-139 -225q180 -193 180 -545q0 -242 -82 -416t-235 -260q-119 -66 -285 -66q-190 0 -317 70l-138 -227l-149 84l155 256l-14 18q-164 212 -164 529zM375 707q0 -164 24 -275l441 725 q-70 63 -172 64q-72 0 -132.5 -34t-89.5 -91q-71 -135 -71 -389zM489 252l13 -6q68 -49 170 -49q150 0 216 120.5t66 393.5q0 160 -22 268z" />
<glyph unicode="&#xd9;" horiz-adv-x="1245" d="M111 432v991h292v-936q0 -123 25 -170q51 -98 195 -98q94 0 150 44t67 122q4 31 4 127v911h291v-958q0 -156 -23 -223q-35 -104 -154.5 -186.5t-328.5 -82.5q-332 0 -457 191q-35 55 -48 110.5t-13 157.5zM307 1673l119 213l424 -266l-84 -152z" />
<glyph unicode="&#xda;" horiz-adv-x="1245" d="M111 432v991h292v-936q0 -123 25 -170q51 -98 195 -98q94 0 150 44t67 122q4 31 4 127v911h291v-958q0 -156 -23 -223q-35 -104 -154.5 -186.5t-328.5 -82.5q-332 0 -457 191q-35 55 -48 110.5t-13 157.5zM367 1620l424 266l118 -213l-458 -205z" />
<glyph unicode="&#xdb;" horiz-adv-x="1245" d="M111 432v991h292v-936q0 -123 25 -170q51 -98 195 -98q94 0 150 44t67 122q4 31 4 127v911h291v-958q0 -156 -23 -223q-35 -104 -154.5 -186.5t-328.5 -82.5q-332 0 -457 191q-35 55 -48 110.5t-13 157.5zM254 1608l369 276l376 -276l-92 -150l-284 156l-277 -156z" />
<glyph unicode="&#xdc;" horiz-adv-x="1245" d="M111 432v991h292v-936q0 -123 25 -170q51 -98 195 -98q94 0 150 44t67 122q4 31 4 127v911h291v-958q0 -156 -23 -223q-35 -104 -154.5 -186.5t-328.5 -82.5q-332 0 -457 191q-35 55 -48 110.5t-13 157.5zM250 1628.5q0 67.5 49 115.5t117 48q66 0 112.5 -48t46.5 -115.5 t-48 -116t-115 -48.5q-66 0 -114 48.5t-48 116zM682 1628.5q0 67.5 48 115.5t118 48q66 0 113 -48t47 -115.5t-48.5 -116t-116 -48.5t-114.5 48.5t-47 116z" />
<glyph unicode="&#xdd;" horiz-adv-x="1134" d="M74 1716l424 267l119 -213l-459 -205zM-14 1427h344l184 -393q49 -113 72 -182q39 96 76 178l184 395h338l-455 -839v-586h-299v586z" />
<glyph unicode="&#xdf;" horiz-adv-x="1202" d="M16 831v213h168v37q0 94 10.5 138.5t41.5 91.5q27 39 57 67q82 70 207 97q57 10 112 10q205 0 325 -91t120 -247q0 -170 -152 -256l-65 -39q-27 -12 -27 -37q0 -29 49 -51l115 -53q59 -31 108 -84q86 -94 86 -232q0 -188 -129 -305t-337 -117q-102 0 -154 25l61 188 q33 -10 62 -10q94 0 145 54.5t51 154.5q0 72 -43 123q-37 41 -75 65l-93 60q-88 57 -88 166q0 90 58 137l55 43q66 51 66 131q0 86 -37 123q-37 41 -103 41q-53 0 -93 -34t-48 -87q-6 -31 -6 -143v-799q0 -123 -41 -211h-279q41 131 41 260v571h-168z" />
<glyph unicode="&#xe0;" horiz-adv-x="1021" d="M66 289q0 360 503 360q33 0 62 -2v43q0 90 -24.5 123t-98.5 33q-127 0 -303 -119l-117 197q80 51 170 86q145 61 287 61q131 0 219 -47t119 -135q18 -55 18 -189l-6 -352v-18q0 -86 19.5 -128t78.5 -87l-145 -168q-106 45 -148 127q-43 -41 -63 -56q-80 -57 -211 -57 q-174 0 -267 85t-93 243zM221 1346l119 213l424 -267l-84 -151zM358 299q0 -61 34 -99t87 -38q78 0 144 71l4 226h-13q-145 0 -200.5 -34t-55.5 -126z" />
<glyph unicode="&#xe1;" horiz-adv-x="1021" d="M66 289q0 360 503 360q33 0 62 -2v43q0 90 -24.5 123t-98.5 33q-127 0 -303 -119l-117 197q80 51 170 86q145 61 287 61q131 0 219 -47t119 -135q18 -55 18 -189l-6 -352v-18q0 -86 19.5 -128t78.5 -87l-145 -168q-106 45 -148 127q-43 -41 -63 -56q-80 -57 -211 -57 q-174 0 -267 85t-93 243zM295 1292l424 267l119 -213l-459 -205zM358 299q0 -61 34 -99t87 -38q78 0 144 71l4 226h-13q-145 0 -200.5 -34t-55.5 -126z" />
<glyph unicode="&#xe2;" horiz-adv-x="1021" d="M66 289q0 360 503 360q33 0 62 -2v43q0 90 -24.5 123t-98.5 33q-127 0 -303 -119l-117 197q80 51 170 86q145 61 287 61q131 0 219 -47t119 -135q18 -55 18 -189l-6 -352v-18q0 -86 19.5 -128t78.5 -87l-145 -168q-106 45 -148 127q-43 -41 -63 -56q-80 -57 -211 -57 q-174 0 -267 85t-93 243zM137 1280l369 276l377 -276l-92 -150l-285 156l-277 -156zM358 299q0 -61 34 -99t87 -38q78 0 144 71l4 226h-13q-145 0 -200.5 -34t-55.5 -126z" />
<glyph unicode="&#xe3;" horiz-adv-x="1021" d="M66 289q0 360 503 360q33 0 62 -2v43q0 90 -24.5 123t-98.5 33q-127 0 -303 -119l-117 197q80 51 170 86q145 61 287 61q131 0 219 -47t119 -135q18 -55 18 -189l-6 -352v-18q0 -86 19.5 -128t78.5 -87l-145 -168q-106 45 -148 127q-43 -41 -63 -56q-80 -57 -211 -57 q-174 0 -267 85t-93 243zM152 1343q55 70 111 103t143 33q63 0 135.5 -41t132.5 -41q31 0 55.5 10t38.5 22.5t41 40.5l88 -151q-55 -70 -111.5 -102.5t-142.5 -32.5q-63 0 -136 41t-132 41q-31 0 -55.5 -10.5t-39 -22.5t-40.5 -41zM358 299q0 -61 34 -99t87 -38q78 0 144 71 l4 226h-13q-145 0 -200.5 -34t-55.5 -126z" />
<glyph unicode="&#xe4;" horiz-adv-x="1021" d="M41 289q0 360 504 360q33 0 61 -2v43q0 90 -24.5 123t-98.5 33q-127 0 -303 -119l-117 197q80 51 170 86q145 61 287 61q131 0 219 -47t119 -135q18 -55 19 -189l-7 -352v-18q0 -86 19.5 -128t79.5 -87l-146 -168q-106 45 -147 127q-43 -41 -64 -56q-80 -57 -211 -57 q-174 0 -267 85t-93 243zM100 1300.5q0 67.5 49.5 115.5t116.5 48q66 0 113 -48t47 -115.5t-48 -115.5t-116 -48q-66 0 -114 48t-48 115.5zM334 299q0 -61 33.5 -99t87.5 -38q78 0 143 71l4 226h-12q-145 0 -200.5 -34t-55.5 -126zM532 1300.5q0 67.5 48.5 115.5t117.5 48 q66 0 113 -48t47 -115.5t-48 -115.5t-115.5 -48t-115 48t-47.5 115.5z" />
<glyph unicode="&#xe5;" horiz-adv-x="1021" d="M66 289q0 360 503 360q33 0 62 -2v43q0 90 -24.5 123t-98.5 33q-127 0 -303 -119l-117 197q80 51 170 86q145 61 287 61q131 0 219 -47t119 -135q18 -55 18 -189l-6 -352v-18q0 -86 19.5 -128t78.5 -87l-145 -168q-106 45 -148 127q-43 -41 -63 -56q-80 -57 -211 -57 q-174 0 -267 85t-93 243zM313 1350q0 88 64.5 152.5t152.5 64.5t150.5 -63.5t62.5 -153.5q0 -88 -64.5 -152.5t-152.5 -64.5t-150.5 63.5t-62.5 153.5zM358 299q0 -61 34 -99t87 -38q78 0 144 71l4 226h-13q-145 0 -200.5 -34t-55.5 -126zM424 1350q0 -43 30.5 -74t71.5 -31 q43 0 74 31t31 74t-30 73.5t-71 30.5q-45 0 -75.5 -30.5t-30.5 -73.5z" />
<glyph unicode="&#xe6;" horiz-adv-x="1593" d="M66 289q0 360 503 360q8 0 26.5 -1t35.5 -1v43q0 90 -24.5 123t-98.5 33q-127 0 -303 -119l-117 197q80 51 170 86q145 61 287 61q145 0 266 -96q102 94 250 94q197 0 303 -111q139 -141 139 -458v-64h-606v-8q0 -121 57.5 -187.5t163.5 -66.5q139 0 266 105l107 -164 q-178 -145 -395 -146q-109 0 -173.5 21.5t-140.5 81.5l-37 37q-20 -29 -108 -91q-80 -57 -211 -57q-174 0 -267 85t-93 243zM358 299q0 -61 34 -99t87 -38q78 0 144 71l4 226h-13q-145 0 -200.5 -34t-55.5 -126zM901 637h318v12q0 106 -33 158q-39 61 -121 61 q-78 0 -121 -59t-43 -168v-4z" />
<glyph unicode="&#xe7;" horiz-adv-x="878" d="M74 516q0 338 215 485q115 78 260 78q104 0 203 -47q43 -23 102 -74l-133 -180q-88 82 -166 82q-92 0 -135 -84t-43 -268q0 -199 53 -264q47 -59 123 -60q90 0 188 86l17 15l125 -166q-49 -49 -97 -78q-111 -66 -239 -66l-15 -41q74 -8 111 -52t37 -109 q0 -78 -59.5 -129.5t-163.5 -51.5q-88 0 -178 50l61 129q70 -31 106 -31q20 0 36 12t16 25q0 41 -52 41q-12 0 -29.5 -6.5t-25.5 -6.5l-26 41l38 144q-158 39 -243.5 175t-85.5 351z" />
<glyph unicode="&#xe8;" d="M59 512q0 270 131 416q127 141 330 141q197 0 303 -111q139 -141 140 -458v-64h-607v-8q0 -121 57.5 -187.5t164.5 -66.5q139 0 266 105l106 -164q-178 -145 -395 -146q-225 0 -360.5 147.5t-135.5 395.5zM184 1346l119 213l424 -267l-84 -151zM360 637h318v12 q0 106 -33 158q-39 61 -121 61q-78 0 -121 -59t-43 -168v-4z" />
<glyph unicode="&#xe9;" d="M59 512q0 270 131 416q127 141 330 141q197 0 303 -111q139 -141 140 -458v-64h-607v-8q0 -121 57.5 -187.5t164.5 -66.5q139 0 266 105l106 -164q-178 -145 -395 -146q-225 0 -360.5 147.5t-135.5 395.5zM289 1292l424 267l118 -213l-458 -205zM360 637h318v12 q0 106 -33 158q-39 61 -121 61q-78 0 -121 -59t-43 -168v-4z" />
<glyph unicode="&#xea;" d="M59 512q0 270 131 416q127 141 330 141q197 0 303 -111q139 -141 140 -458v-64h-607v-8q0 -121 57.5 -187.5t164.5 -66.5q139 0 266 105l106 -164q-178 -145 -395 -146q-225 0 -360.5 147.5t-135.5 395.5zM162 1280l368 276l377 -276l-92 -150l-285 156l-276 -156z M360 637h318v12q0 106 -33 158q-39 61 -121 61q-78 0 -121 -59t-43 -168v-4z" />
<glyph unicode="&#xeb;" d="M59 512q0 270 131 416q127 141 330 141q197 0 303 -111q139 -141 140 -458v-64h-607v-8q0 -121 57.5 -187.5t164.5 -66.5q139 0 266 105l106 -164q-178 -145 -395 -146q-225 0 -360.5 147.5t-135.5 395.5zM156 1300.5q0 67.5 49 115.5t117 48q66 0 112.5 -48t46.5 -115.5 t-48 -115.5t-116 -48q-66 0 -113.5 48t-47.5 115.5zM360 637h318v12q0 106 -33 158q-39 61 -121 61q-78 0 -121 -59t-43 -168v-4zM588 1300.5q0 67.5 48 115.5t118 48q66 0 112.5 -48t46.5 -115.5t-48 -115.5t-115.5 -48t-114.5 48t-47 115.5z" />
<glyph unicode="&#xec;" horiz-adv-x="512" d="M-80 1346l119 213l424 -267l-84 -151zM119 0v1030l274 43v-1073h-274z" />
<glyph unicode="&#xed;" horiz-adv-x="512" d="M25 1292l424 267l118 -213l-458 -205zM119 0v1030l274 43v-1073h-274z" />
<glyph unicode="&#xee;" horiz-adv-x="512" d="M-115 1280l369 276l377 -276l-92 -150l-285 156l-277 -156zM119 0v1030l274 43v-1073h-274z" />
<glyph unicode="&#xef;" horiz-adv-x="512" d="M-121 1300.5q0 67.5 49 115.5t117 48q66 0 113 -48t47 -115.5t-48 -115.5t-116 -48q-66 0 -114 48t-48 115.5zM119 0v1030l274 43v-1073h-274zM311 1300.5q0 67.5 48.5 115.5t117.5 48q66 0 113 -48t47 -115.5t-48 -115.5t-115.5 -48t-115 48t-47.5 115.5z" />
<glyph unicode="&#xf1;" horiz-adv-x="1091" d="M98 1006l244 69q39 -68 39 -131q72 51 121 78q86 45 188 45q88 0 158 -42t94 -110q20 -55 21 -149v-766h-271v682q0 90 -19.5 122t-72.5 32q-86 0 -190 -95v-741h-275v760q0 142 -37 246zM180 1343q55 70 111.5 103t142.5 33q63 0 136 -41t132 -41q31 0 55.5 10t39 22.5 t41.5 40.5l88 -151q-55 -70 -111.5 -102.5t-142.5 -32.5q-63 0 -136 41t-133 41q-31 0 -55 -10.5t-38.5 -22.5t-41.5 -41z" />
<glyph unicode="&#xf2;" horiz-adv-x="1060" d="M57 520q0 248 129 398.5t342 150.5q223 0 357 -158q121 -141 121 -383q0 -256 -132 -405q-129 -145 -346 -146q-213 0 -342 147.5t-129 395.5zM184 1346l119 213l424 -267l-84 -151zM362 526q0 -182 35 -264q18 -41 57.5 -63.5t82.5 -22.5q90 0 130 84t40 270 q0 211 -56 281q-43 55 -119 55q-104 0 -141 -106q-29 -87 -29 -234z" />
<glyph unicode="&#xf3;" horiz-adv-x="1060" d="M57 520q0 248 129 398.5t342 150.5q223 0 357 -158q121 -141 121 -383q0 -256 -132 -405q-129 -145 -346 -146q-213 0 -342 147.5t-129 395.5zM295 1292l424 267l119 -213l-459 -205zM362 526q0 -182 35 -264q18 -41 57.5 -63.5t82.5 -22.5q90 0 130 84t40 270 q0 211 -56 281q-43 55 -119 55q-104 0 -141 -106q-29 -87 -29 -234z" />
<glyph unicode="&#xf4;" horiz-adv-x="1060" d="M57 520q0 248 129 398.5t342 150.5q223 0 357 -158q121 -141 121 -383q0 -256 -132 -405q-129 -145 -346 -146q-213 0 -342 147.5t-129 395.5zM168 1280l369 276l376 -276l-92 -150l-284 156l-277 -156zM362 526q0 -182 35 -264q18 -41 57.5 -63.5t82.5 -22.5 q90 0 130 84t40 270q0 211 -56 281q-43 55 -119 55q-104 0 -141 -106q-29 -87 -29 -234z" />
<glyph unicode="&#xf5;" horiz-adv-x="1060" d="M57 520q0 248 129 398.5t342 150.5q223 0 357 -158q121 -141 121 -383q0 -256 -132 -405q-129 -145 -346 -146q-213 0 -342 147.5t-129 395.5zM164 1343q55 70 111.5 103t142.5 33q63 0 136 -41t132 -41q31 0 55.5 10t39 22.5t40.5 40.5l88 -151q-55 -70 -111.5 -102.5 t-142.5 -32.5q-63 0 -136 41t-132 41q-31 0 -55.5 -10.5t-38.5 -22.5t-41 -41zM362 526q0 -182 35 -264q18 -41 57.5 -63.5t82.5 -22.5q90 0 130 84t40 270q0 211 -56 281q-43 55 -119 55q-104 0 -141 -106q-29 -87 -29 -234z" />
<glyph unicode="&#xf6;" horiz-adv-x="1060" d="M57 520q0 248 129 398.5t342 150.5q223 0 357 -158q121 -141 121 -383q0 -256 -132 -405q-129 -145 -346 -146q-213 0 -342 147.5t-129 395.5zM156 1300.5q0 67.5 49 115.5t117 48q66 0 112.5 -48t46.5 -115.5t-48 -115.5t-116 -48q-66 0 -113.5 48t-47.5 115.5zM362 526 q0 -182 35 -264q18 -41 57.5 -63.5t82.5 -22.5q90 0 130 84t40 270q0 211 -56 281q-43 55 -119 55q-104 0 -141 -106q-29 -87 -29 -234zM588 1300.5q0 67.5 48 115.5t118 48q66 0 112.5 -48t46.5 -115.5t-48 -115.5t-115.5 -48t-114.5 48t-47 115.5z" />
<glyph unicode="&#xf7;" horiz-adv-x="1771" d="M47 858v193h100q0 20 -5 68t-5 73q0 156 88 241t250 85q131 0 248 -66l-88 -170q-72 35 -113 35q-53 0 -83.5 -32t-30.5 -87v-147h358q0 23 -5 71.5t-5 69.5q0 156 88 241t250 85q141 0 227 -50l-88 -170q-41 18 -92 19q-53 0 -84 -32t-31 -87v-147h627v-1051h-275v858 h-350v-858h-268v858h-350v-858h-269v858h-94zM1348 1337.5q0 69.5 50 119.5t122 50q70 0 118 -49t48 -120.5t-50.5 -121t-120 -49.5t-118.5 50.5t-49 120z" />
<glyph unicode="&#xf8;" horiz-adv-x="1060" d="M57 520q0 248 129 398.5t342 150.5q125 0 224 -49l120 197l127 -72l-133 -215l19 -19q121 -141 121 -383q0 -256 -132 -405q-129 -145 -346 -146q-117 0 -211 48l-118 -197l-127 72l127 211q-142 151 -142 409zM362 526q0 -27 3.5 -72.5t3.5 -64.5l266 438 q-43 39 -103 39q-104 0 -141 -106q-29 -87 -29 -234zM432 213q47 -37 105 -37q90 0 130 84t40 270q0 25 -3.5 66t-3.5 57z" />
<glyph unicode="&#xf9;" horiz-adv-x="1099" d="M137 352v672l271 51v-674q0 -133 22 -172q25 -49 96 -49q51 0 102.5 31t67.5 70v737l262 55v-801q0 -115 64 -190l-195 -111q-55 39 -82 103q-104 -100 -276 -101q-111 0 -197 47.5t-112 122.5q-23 66 -23 209zM264 1346l119 213l424 -267l-84 -151z" />
<glyph unicode="&#xfa;" horiz-adv-x="1099" d="M137 352v672l271 51v-674q0 -133 22 -172q25 -49 96 -49q51 0 102.5 31t67.5 70v737l262 55v-801q0 -115 64 -190l-195 -111q-55 39 -82 103q-104 -100 -276 -101q-111 0 -197 47.5t-112 122.5q-23 66 -23 209zM295 1292l424 267l119 -213l-459 -205z" />
<glyph unicode="&#xfb;" horiz-adv-x="1099" d="M137 352v672l271 51v-674q0 -133 22 -172q25 -49 96 -49q51 0 102.5 31t67.5 70v737l262 55v-801q0 -115 64 -190l-195 -111q-55 39 -82 103q-104 -100 -276 -101q-111 0 -197 47.5t-112 122.5q-23 66 -23 209zM180 1280l369 276l377 -276l-92 -150l-285 156l-277 -156z " />
<glyph unicode="&#xfc;" horiz-adv-x="1099" d="M137 352v672l271 51v-674q0 -133 22 -172q25 -49 96 -49q51 0 102.5 31t67.5 70v737l262 55v-801q0 -115 64 -190l-195 -111q-55 39 -82 103q-104 -100 -276 -101q-111 0 -197 47.5t-112 122.5q-23 66 -23 209zM174 1300.5q0 67.5 49 115.5t117 48q66 0 113 -48 t47 -115.5t-48.5 -115.5t-115.5 -48q-66 0 -114 48t-48 115.5zM606 1300.5q0 67.5 48 115.5t118 48q66 0 113 -48t47 -115.5t-48 -115.5t-116 -48t-115 48t-47 115.5z" />
<glyph unicode="&#xfd;" d="M201 1343l424 267l119 -213l-459 -205zM4 1030l281 33l182 -610l55 -217q20 117 33 167q10 41 41 146l158 498h288l-380 -1063q-53 -150 -98.5 -226.5t-102.5 -119.5q-104 -76 -254 -97l-94 180q117 33 170 70q43 31 77 86q29 47 60 123h-70l-23 66l-20 57q-8 23 -22 68 l-24 74q-9 28 -9 30z" />
<glyph unicode="&#xff;" d="M4 1030l281 33l182 -610l55 -217q20 117 33 167q10 41 41 146l158 498h288l-380 -1063q-53 -150 -98.5 -226.5t-102.5 -119.5q-104 -76 -254 -97l-94 180q117 33 170 70q43 31 77 86q29 47 60 123h-70l-23 66l-20 57q-8 23 -22 68l-24 74q-9 28 -9 30zM174 1300.5 q0 67.5 49 115.5t117 48q66 0 113 -48t47 -115.5t-48.5 -115.5t-115.5 -48q-66 0 -114 48t-48 115.5zM606 1300.5q0 67.5 48 115.5t118 48q66 0 113 -48t47 -115.5t-48 -115.5t-116 -48t-115 48t-47 115.5z" />
<glyph unicode="&#x152;" horiz-adv-x="1710" d="M55 715q0 287 144 485q117 160 346 205q96 18 260 18h811l-37 -233h-483v-330h403v-233h-403v-381h559v-246l-846 -2q-242 0 -350.5 26.5t-208.5 122.5q-195 189 -195 568zM397 741q0 -283 72 -399q72 -119 225 -119q31 0 64 5t49 10l18 6v915q-78 20 -153 21 q-141 0 -208 -107t-67 -332z" />
<glyph unicode="&#x153;" horiz-adv-x="1638" d="M57 520q0 248 129 398.5t342 150.5q186 0 308 -108q117 109 299 108q197 0 303 -111q139 -141 139 -458v-64h-606v-8q0 -121 57 -187.5t164 -66.5q139 0 266 105l107 -164q-178 -145 -396 -146q-201 0 -329 117q-121 -109 -312 -109q-213 0 -342 147.5t-129 395.5z M362 526q0 -182 35 -264q18 -41 57.5 -63.5t82.5 -22.5q90 0 130 84t40 270q0 211 -56 281q-43 55 -119 55q-104 0 -141 -106q-29 -87 -29 -234zM975 637h317v12q0 106 -32 158q-39 61 -121 61q-78 0 -121 -59t-43 -168v-4z" />
<glyph unicode="&#x178;" horiz-adv-x="1134" d="M-14 1427h344l184 -393q49 -113 72 -182q39 96 76 178l184 395h338l-455 -839v-586h-299v586zM229 1628.5q0 67.5 49.5 115.5t116.5 48q66 0 113 -48t47 -115.5t-48 -116t-116 -48.5q-66 0 -114 48.5t-48 116zM662 1628.5q0 67.5 48 115.5t117 48q66 0 113 -48t47 -115.5 t-48 -116t-115.5 -48.5t-114.5 48.5t-47 116z" />
<glyph unicode="&#x2c6;" horiz-adv-x="823" d="M39 1280l369 276l376 -276l-92 -150l-284 156l-277 -156z" />
<glyph unicode="&#x2dc;" horiz-adv-x="804" d="M29 1343q55 70 111.5 103t142.5 33q63 0 136 -41t132 -41q31 0 55.5 10t38.5 22.5t41 40.5l88 -151q-55 -70 -111.5 -102.5t-142.5 -32.5q-63 0 -136 41t-132 41q-31 0 -55.5 -10.5t-39 -22.5t-40.5 -41z" />
<glyph unicode="&#x3bc;" horiz-adv-x="1099" d="M137 -451v1475l271 51v-674q0 -133 22 -172q25 -49 96 -49q51 0 102.5 31t67.5 70v737l262 55v-801q0 -115 64 -190l-195 -111q-55 39 -82 103q-104 -100 -276 -101q-39 0 -72 29q4 -41 4 -63v-320z" />
<glyph unicode="&#x2013;" horiz-adv-x="985" d="M-6 457v211h997v-211h-997z" />
<glyph unicode="&#x2014;" horiz-adv-x="1970" d="M254 457v211h1460v-211h-1460z" />
<glyph unicode="&#x2018;" horiz-adv-x="546" d="M68 1098q0 133 79.5 235.5t208.5 134.5l109 -114q-68 -16 -108 -47t-40 -70q0 -33 54 -66q80 -45 80 -143q0 -74 -52.5 -125t-126.5 -51q-88 0 -146 70t-58 176z" />
<glyph unicode="&#x2019;" horiz-adv-x="546" d="M72 954q68 16 107.5 48t39.5 69q0 33 -53 66q-80 47 -80 143q0 74 51 125t127 51q90 0 147.5 -69.5t57.5 -176.5q0 -133 -80 -234.5t-209 -133.5z" />
<glyph unicode="&#x201a;" horiz-adv-x="546" d="M68 -182q68 14 107.5 47t39.5 69q0 33 -53 66q-80 47 -80 143q0 74 52 125t126 51q90 0 147.5 -69.5t57.5 -175.5q0 -133 -80 -235.5t-209 -135.5z" />
<glyph unicode="&#x201c;" horiz-adv-x="1001" d="M68 1100q0 133 79.5 235.5t208.5 134.5l109 -114q-68 -16 -108 -47t-40 -70q0 -33 54 -65q80 -47 80 -144q0 -74 -52.5 -125t-128.5 -51q-88 0 -145 70t-57 176zM530 1100q0 133 80 235.5t207 134.5l109 -114q-66 -16 -106 -47t-40 -70q0 -35 54 -65q80 -49 79 -144 q0 -74 -52 -125t-128 -51q-88 0 -145.5 68.5t-57.5 177.5z" />
<glyph unicode="&#x201d;" horiz-adv-x="1001" d="M72 954q68 16 107.5 48t39.5 69q0 33 -53 66q-80 47 -80 143q0 74 51 125t127 51q90 0 147.5 -69.5t57.5 -176.5q0 -133 -80 -234.5t-209 -133.5zM535 954q66 16 105.5 48t39.5 69q0 35 -51 66q-80 47 -80 143q0 74 51 125t127 51q88 0 145.5 -68.5t57.5 -177.5 q0 -133 -79 -234.5t-208 -133.5z" />
<glyph unicode="&#x201e;" horiz-adv-x="995" d="M68 -182q68 14 107.5 47t39.5 69q0 33 -53 66q-80 47 -80 143q0 74 52 125t126 51q90 0 147.5 -69.5t57.5 -175.5q0 -133 -80 -235.5t-209 -135.5zM530 -182q66 14 106 47t40 69q0 35 -51 66q-80 47 -80 143q0 74 51 125t127 51q90 0 147.5 -69.5t57.5 -175.5 q0 -133 -80 -235.5t-209 -135.5z" />
<glyph unicode="&#x2022;" d="M150 725q0 152 105 257t257 105t257 -105t105 -257t-105 -257.5t-257 -105.5t-257 105.5t-105 257.5z" />
<glyph unicode="&#x2026;" horiz-adv-x="1531" d="M74 150q0 74 52 126t126 52q76 0 129 -52.5t53 -125.5q0 -76 -53 -129.5t-127 -53.5q-76 0 -128 53.5t-52 129.5zM586 150q0 74 52 126t126 52q76 0 129 -52.5t53 -125.5q0 -76 -53 -129.5t-127 -53.5q-76 0 -128 53.5t-52 129.5zM1098 150q0 74 52 126t126 52 q76 0 129 -52.5t53 -125.5q0 -76 -53 -129.5t-127 -53.5q-76 0 -128 53.5t-52 129.5z" />
<glyph unicode="&#x2039;" horiz-adv-x="606" d="M37 510l325 479l187 -125l-238 -354l238 -354l-187 -125z" />
<glyph unicode="&#x203a;" horiz-adv-x="606" d="M57 156l238 354l-238 354l187 125l325 -479l-325 -479z" />
<glyph unicode="&#x2044;" horiz-adv-x="686" d="M-262 -315l1081 1880h221l-1081 -1880h-221z" />
<glyph unicode="&#x2122;" horiz-adv-x="2048" d="M82 1253v197h709v-197h-244v-647h-221v647h-244zM971 606v844h297l200 -549l201 549h297v-844h-221v549h-4l-201 -549h-143l-201 549h-4v-549h-221z" />
<glyph unicode="&#xe000;" horiz-adv-x="1075" d="M0 1075h1075v-1075h-1075v1075z" />
<glyph unicode="&#xfb01;" horiz-adv-x="1155" d="M41 858v193h100q0 20 -5 68t-5 73q0 156 88 241t250 85q141 0 227 -50l-88 -170q-39 18 -92 18.5t-84 -31.5t-31 -87v-147h627v-1051h-274v858h-351v-858h-268v858h-94zM723 1337.5q0 69.5 50 119.5t122 50q70 0 118 -49t48 -120.5t-49 -121t-121 -49.5q-70 0 -119 50.5 t-49 120z" />
<glyph unicode="&#xfb02;" horiz-adv-x="1177" d="M47 858v193h94q0 20 -5 68t-5 73q0 156 88 241t250 85q141 0 227 -50l-88 -170q-39 18 -92 18.5t-84 -31.5t-31 -87v-147h252l-69 -193h-174v-858h-269v858h-94zM739 1452l281 64q14 -80 14 -273v-817q0 -201 19 -233q16 -29 55 -29q16 0 31 4l47 -164q-74 -29 -164 -29 q-88 0 -153.5 39t-90.5 105q-25 63 -24 235v783q-1 184 -15 315z" />
<glyph unicode="&#xfb03;" horiz-adv-x="1679" d="M1255 1337.5q0 69.5 50 119.5t122 50q70 0 118 -49t48 -120.5t-49 -121t-121 -49.5q-70 0 -119 50.5t-49 120zM1286 0v1030l274 43v-1073h-274zM631 858v193h100q-10 72 -10 141q0 156 88 241t250 85q131 0 248 -66l-88 -170q-72 35 -113 35q-53 0 -83.5 -32t-30.5 -87 v-147h266l-70 -193h-194v-858h-269v858h-94zM47 858v193h100q-10 72 -10 141q0 156 88 241t250 85q131 0 248 -66l-88 -170q-72 35 -113 35q-53 0 -83.5 -32t-30.5 -87v-147h266l-70 -193h-194v-858h-269v858h-94z" />
<glyph unicode="&#xfb04;" horiz-adv-x="1718" d="M1280 1452l280 64q14 -80 15 -273v-817q0 -201 18 -233q16 -29 55 -29q16 0 31 4l47 -164q-74 -29 -164 -29q-88 0 -153.5 39t-89.5 105q-25 63 -25 235v783q0 184 -14 315zM631 858v193h100q-10 72 -10 141q0 156 88 241t250 85q131 0 248 -66l-88 -170q-72 35 -113 35 q-53 0 -83.5 -32t-30.5 -87v-147h266l-70 -193h-194v-858h-269v858h-94zM47 858v193h100q-10 72 -10 141q0 156 88 241t250 85q131 0 248 -66l-88 -170q-72 35 -113 35q-53 0 -83.5 -32t-30.5 -87v-147h266l-70 -193h-194v-858h-269v858h-94z" />
</font>
</defs>
</svg>
